<svg aria-roledescription="flowchart-v2" role="graphics-document document" viewBox="-8 -8 769 760" style="max-width: 769px;" xmlns="http://www.w3.org/2000/svg" width="769" id="svg" xmlns:xlink="http://www.w3.org/1999/xlink" height="760"><style>#svg{font-family:"trebuchet ms",verdana,arial,sans-serif;font-size:16px;fill:#333;}#svg .error-icon{fill:#552222;}#svg .error-text{fill:#552222;stroke:#552222;}#svg .edge-thickness-normal{stroke-width:2px;}#svg .edge-thickness-thick{stroke-width:3.5px;}#svg .edge-pattern-solid{stroke-dasharray:0;}#svg .edge-pattern-dashed{stroke-dasharray:3;}#svg .edge-pattern-dotted{stroke-dasharray:2;}#svg .marker{fill:#333333;stroke:#333333;}#svg .marker.cross{stroke:#333333;}#svg svg{font-family:"trebuchet ms",verdana,arial,sans-serif;font-size:16px;}#svg .label{font-family:"trebuchet ms",verdana,arial,sans-serif;color:#333;}#svg .cluster-label text{fill:#333;}#svg .cluster-label span,#svg p{color:#333;}#svg .label text,#svg span,#svg p{fill:#333;color:#333;}#svg .node rect,#svg .node circle,#svg .node ellipse,#svg .node polygon,#svg .node path{fill:#ECECFF;stroke:#9370DB;stroke-width:1px;}#svg .flowchart-label text{text-anchor:middle;}#svg .node .katex path{fill:#000;stroke:#000;stroke-width:1px;}#svg .node .label{text-align:center;}#svg .node.clickable{cursor:pointer;}#svg .arrowheadPath{fill:#333333;}#svg .edgePath .path{stroke:#333333;stroke-width:2.0px;}#svg .flowchart-link{stroke:#333333;fill:none;}#svg .edgeLabel{background-color:#e8e8e8;text-align:center;}#svg .edgeLabel rect{opacity:0.5;background-color:#e8e8e8;fill:#e8e8e8;}#svg .labelBkg{background-color:rgba(232, 232, 232, 0.5);}#svg .cluster rect{fill:#ffffde;stroke:#aaaa33;stroke-width:1px;}#svg .cluster text{fill:#333;}#svg .cluster span,#svg p{color:#333;}#svg div.mermaidTooltip{position:absolute;text-align:center;max-width:200px;padding:2px;font-family:"trebuchet ms",verdana,arial,sans-serif;font-size:12px;background:hsl(80, 100%, 96.2745098039%);border:1px solid #aaaa33;border-radius:2px;pointer-events:none;z-index:100;}#svg .flowchartTitleText{text-anchor:middle;font-size:18px;fill:#333;}#svg .today{display:none;}#svg .label foreignObject{overflow:visible;}#svg :root{--mermaid-font-family:"trebuchet ms",verdana,arial,sans-serif;}#svg .default&gt;*{fill:#f5f8fa!important;stroke:#4a90e2!important;stroke-width:2px!important;rx:10px!important;}#svg .default span{fill:#f5f8fa!important;stroke:#4a90e2!important;stroke-width:2px!important;rx:10px!important;}#svg .root&gt;*{fill:#e8f4f8!important;stroke:#2980b9!important;stroke-width:3px!important;rx:12px!important;}#svg .root span{fill:#e8f4f8!important;stroke:#2980b9!important;stroke-width:3px!important;rx:12px!important;}#svg .process&gt;*{fill:#f0f7ff!important;stroke:#3498db!important;stroke-width:2px!important;rx:8px!important;}#svg .process span{fill:#f0f7ff!important;stroke:#3498db!important;stroke-width:2px!important;rx:8px!important;}#svg .subitem&gt;*{fill:#fef9e7!important;stroke:#f1c40f!important;stroke-width:1px!important;rx:5px!important;}#svg .subitem span{fill:#fef9e7!important;stroke:#f1c40f!important;stroke-width:1px!important;rx:5px!important;}#svg .output&gt;*{fill:#d5e8d4!important;stroke:#82b366!important;stroke-width:3px!important;rx:12px!important;}#svg .output span{fill:#d5e8d4!important;stroke:#82b366!important;stroke-width:3px!important;rx:12px!important;}</style><g><marker orient="auto" markerHeight="12" markerWidth="12" markerUnits="userSpaceOnUse" refY="5" refX="6" viewBox="0 0 10 10" class="marker flowchart" id="svg_flowchart-pointEnd"><path style="stroke-width: 1; stroke-dasharray: 1, 0;" class="arrowMarkerPath" d="M 0 0 L 10 5 L 0 10 z"></path></marker><marker orient="auto" markerHeight="12" markerWidth="12" markerUnits="userSpaceOnUse" refY="5" refX="4.5" viewBox="0 0 10 10" class="marker flowchart" id="svg_flowchart-pointStart"><path style="stroke-width: 1; stroke-dasharray: 1, 0;" class="arrowMarkerPath" d="M 0 5 L 10 10 L 10 0 z"></path></marker><marker orient="auto" markerHeight="11" markerWidth="11" markerUnits="userSpaceOnUse" refY="5" refX="11" viewBox="0 0 10 10" class="marker flowchart" id="svg_flowchart-circleEnd"><circle style="stroke-width: 1; stroke-dasharray: 1, 0;" class="arrowMarkerPath" r="5" cy="5" cx="5"></circle></marker><marker orient="auto" markerHeight="11" markerWidth="11" markerUnits="userSpaceOnUse" refY="5" refX="-1" viewBox="0 0 10 10" class="marker flowchart" id="svg_flowchart-circleStart"><circle style="stroke-width: 1; stroke-dasharray: 1, 0;" class="arrowMarkerPath" r="5" cy="5" cx="5"></circle></marker><marker orient="auto" markerHeight="11" markerWidth="11" markerUnits="userSpaceOnUse" refY="5.2" refX="12" viewBox="0 0 11 11" class="marker cross flowchart" id="svg_flowchart-crossEnd"><path style="stroke-width: 2; stroke-dasharray: 1, 0;" class="arrowMarkerPath" d="M 1,1 l 9,9 M 10,1 l -9,9"></path></marker><marker orient="auto" markerHeight="11" markerWidth="11" markerUnits="userSpaceOnUse" refY="5.2" refX="-1" viewBox="0 0 11 11" class="marker cross flowchart" id="svg_flowchart-crossStart"><path style="stroke-width: 2; stroke-dasharray: 1, 0;" class="arrowMarkerPath" d="M 1,1 l 9,9 M 10,1 l -9,9"></path></marker><g class="root"><g class="clusters"></g><g class="edgePaths"><path marker-end="url(#svg_flowchart-pointEnd)" style="fill:none;" class="edge-thickness-normal edge-pattern-solid flowchart-link LS-A LE-B" id="L-A-B-0" d="M392.25,53L392.25,57.167C392.25,61.333,392.25,69.667,392.25,77.117C392.25,84.567,392.25,91.133,392.25,94.417L392.25,97.7"></path><path marker-end="url(#svg_flowchart-pointEnd)" style="fill:none;" class="edge-thickness-normal edge-pattern-solid flowchart-link LS-B LE-C" id="L-B-C-0" d="M392.25,137L392.25,141.167C392.25,145.333,392.25,153.667,392.25,161.117C392.25,168.567,392.25,175.133,392.25,178.417L392.25,181.7"></path><path marker-end="url(#svg_flowchart-pointEnd)" style="fill:none;" class="edge-thickness-normal edge-pattern-solid flowchart-link LS-C LE-D" id="L-C-D-0" d="M392.25,221L392.25,225.167C392.25,229.333,392.25,237.667,392.25,245.117C392.25,252.567,392.25,259.133,392.25,262.417L392.25,265.7"></path><path marker-end="url(#svg_flowchart-pointEnd)" style="fill:none;" class="edge-thickness-normal edge-pattern-solid flowchart-link LS-D LE-D1" id="L-D-D1-0" d="M292.25,300.66L253.625,305.55C215,310.44,137.75,320.22,99.125,328.393C60.5,336.567,60.5,343.133,60.5,346.417L60.5,349.7"></path><path marker-end="url(#svg_flowchart-pointEnd)" style="fill:none;" class="edge-thickness-normal edge-pattern-solid flowchart-link LS-D LE-D2" id="L-D-D2-0" d="M343.982,305L332.152,309.167C320.321,313.333,296.661,321.667,284.83,329.117C273,336.567,273,343.133,273,346.417L273,349.7"></path><path marker-end="url(#svg_flowchart-pointEnd)" style="fill:none;" class="edge-thickness-normal edge-pattern-solid flowchart-link LS-D LE-D3" id="L-D-D3-0" d="M440.518,305L452.348,309.167C464.179,313.333,487.839,321.667,499.67,329.117C511.5,336.567,511.5,343.133,511.5,346.417L511.5,349.7"></path><path marker-end="url(#svg_flowchart-pointEnd)" style="fill:none;" class="edge-thickness-normal edge-pattern-solid flowchart-link LS-D LE-D4" id="L-D-D4-0" d="M492.25,301.625L526.958,306.354C561.667,311.084,631.083,320.542,665.792,328.554C700.5,336.567,700.5,343.133,700.5,346.417L700.5,349.7"></path><path marker-end="url(#svg_flowchart-pointEnd)" style="fill:none;" class="edge-thickness-normal edge-pattern-solid flowchart-link LS-D1 LE-E" id="L-D1-E-0" d="M60.5,389L60.5,393.167C60.5,397.333,60.5,405.667,101.665,415.045C142.831,424.423,225.161,434.846,266.327,440.058L307.492,445.27"></path><path marker-end="url(#svg_flowchart-pointEnd)" style="fill:none;" class="edge-thickness-normal edge-pattern-solid flowchart-link LS-D2 LE-E" id="L-D2-E-0" d="M273,389L273,393.167C273,397.333,273,405.667,283.997,413.707C294.994,421.746,316.989,429.493,327.986,433.366L338.983,437.239"></path><path marker-end="url(#svg_flowchart-pointEnd)" style="fill:none;" class="edge-thickness-normal edge-pattern-solid flowchart-link LS-D3 LE-E" id="L-D3-E-0" d="M511.5,389L511.5,393.167C511.5,397.333,511.5,405.667,500.503,413.707C489.506,421.746,467.511,429.493,456.514,433.366L445.517,437.239"></path><path marker-end="url(#svg_flowchart-pointEnd)" style="fill:none;" class="edge-thickness-normal edge-pattern-solid flowchart-link LS-D4 LE-E" id="L-D4-E-0" d="M700.5,389L700.5,393.167C700.5,397.333,700.5,405.667,663.25,414.909C626,424.151,551.501,434.302,514.251,439.377L477.001,444.452"></path><path marker-end="url(#svg_flowchart-pointEnd)" style="fill:none;" class="edge-thickness-normal edge-pattern-solid flowchart-link LS-E LE-F" id="L-E-F-0" d="M392.25,473L392.25,477.167C392.25,481.333,392.25,489.667,392.25,497.117C392.25,504.567,392.25,511.133,392.25,514.417L392.25,517.7"></path><path marker-end="url(#svg_flowchart-pointEnd)" style="fill:none;" class="edge-thickness-normal edge-pattern-solid flowchart-link LS-F LE-G" id="L-F-G-0" d="M392.25,557L392.25,561.167C392.25,565.333,392.25,573.667,392.25,581.117C392.25,588.567,392.25,595.133,392.25,598.417L392.25,601.7"></path><path marker-end="url(#svg_flowchart-pointEnd)" style="fill:none;" class="edge-thickness-normal edge-pattern-solid flowchart-link LS-G LE-H" id="L-G-H-0" d="M392.25,641L392.25,645.167C392.25,649.333,392.25,657.667,392.25,665.117C392.25,672.567,392.25,679.133,392.25,682.417L392.25,685.7"></path></g><g class="edgeLabels"><g class="edgeLabel"><g transform="translate(0, 0)" class="label"><foreignObject height="0" width="0"><div style="display: inline-block; white-space: nowrap;" xmlns="http://www.w3.org/1999/xhtml"><span class="edgeLabel"></span></div></foreignObject></g></g><g class="edgeLabel"><g transform="translate(0, 0)" class="label"><foreignObject height="0" width="0"><div style="display: inline-block; white-space: nowrap;" xmlns="http://www.w3.org/1999/xhtml"><span class="edgeLabel"></span></div></foreignObject></g></g><g class="edgeLabel"><g transform="translate(0, 0)" class="label"><foreignObject height="0" width="0"><div style="display: inline-block; white-space: nowrap;" xmlns="http://www.w3.org/1999/xhtml"><span class="edgeLabel"></span></div></foreignObject></g></g><g class="edgeLabel"><g transform="translate(0, 0)" class="label"><foreignObject height="0" width="0"><div style="display: inline-block; white-space: nowrap;" xmlns="http://www.w3.org/1999/xhtml"><span class="edgeLabel"></span></div></foreignObject></g></g><g class="edgeLabel"><g transform="translate(0, 0)" class="label"><foreignObject height="0" width="0"><div style="display: inline-block; white-space: nowrap;" xmlns="http://www.w3.org/1999/xhtml"><span class="edgeLabel"></span></div></foreignObject></g></g><g class="edgeLabel"><g transform="translate(0, 0)" class="label"><foreignObject height="0" width="0"><div style="display: inline-block; white-space: nowrap;" xmlns="http://www.w3.org/1999/xhtml"><span class="edgeLabel"></span></div></foreignObject></g></g><g class="edgeLabel"><g transform="translate(0, 0)" class="label"><foreignObject height="0" width="0"><div style="display: inline-block; white-space: nowrap;" xmlns="http://www.w3.org/1999/xhtml"><span class="edgeLabel"></span></div></foreignObject></g></g><g class="edgeLabel"><g transform="translate(0, 0)" class="label"><foreignObject height="0" width="0"><div style="display: inline-block; white-space: nowrap;" xmlns="http://www.w3.org/1999/xhtml"><span class="edgeLabel"></span></div></foreignObject></g></g><g class="edgeLabel"><g transform="translate(0, 0)" class="label"><foreignObject height="0" width="0"><div style="display: inline-block; white-space: nowrap;" xmlns="http://www.w3.org/1999/xhtml"><span class="edgeLabel"></span></div></foreignObject></g></g><g class="edgeLabel"><g transform="translate(0, 0)" class="label"><foreignObject height="0" width="0"><div style="display: inline-block; white-space: nowrap;" xmlns="http://www.w3.org/1999/xhtml"><span class="edgeLabel"></span></div></foreignObject></g></g><g class="edgeLabel"><g transform="translate(0, 0)" class="label"><foreignObject height="0" width="0"><div style="display: inline-block; white-space: nowrap;" xmlns="http://www.w3.org/1999/xhtml"><span class="edgeLabel"></span></div></foreignObject></g></g><g class="edgeLabel"><g transform="translate(0, 0)" class="label"><foreignObject height="0" width="0"><div style="display: inline-block; white-space: nowrap;" xmlns="http://www.w3.org/1999/xhtml"><span class="edgeLabel"></span></div></foreignObject></g></g><g class="edgeLabel"><g transform="translate(0, 0)" class="label"><foreignObject height="0" width="0"><div style="display: inline-block; white-space: nowrap;" xmlns="http://www.w3.org/1999/xhtml"><span class="edgeLabel"></span></div></foreignObject></g></g><g class="edgeLabel"><g transform="translate(0, 0)" class="label"><foreignObject height="0" width="0"><div style="display: inline-block; white-space: nowrap;" xmlns="http://www.w3.org/1999/xhtml"><span class="edgeLabel"></span></div></foreignObject></g></g></g><g class="nodes"><g transform="translate(392.25, 26.5)" data-id="A" data-node="true" id="flowchart-A-0" class="node default root flowchart-label"><rect height="53" width="146" y="-26.5" x="-73" ry="0" rx="0" style="" class="basic label-container"></rect><g transform="translate(-65.5, -19)" style="" class="label"><rect></rect><foreignObject height="38" width="131"><div style="display: inline-block; white-space: nowrap;" xmlns="http://www.w3.org/1999/xhtml"><span class="nodeLabel">Document Input<br/>(PDF/TXT/DOCX)</span></div></foreignObject></g></g><g transform="translate(392.25, 120)" data-id="B" data-node="true" id="flowchart-B-1" class="node default process flowchart-label"><rect height="34" width="154" y="-17" x="-77" ry="0" rx="0" style="" class="basic label-container"></rect><g transform="translate(-69.5, -9.5)" style="" class="label"><rect></rect><foreignObject height="19" width="139"><div style="display: inline-block; white-space: nowrap;" xmlns="http://www.w3.org/1999/xhtml"><span class="nodeLabel">Document Parser</span></div></foreignObject></g></g><g transform="translate(392.25, 204)" data-id="C" data-node="true" id="flowchart-C-3" class="node default process flowchart-label"><rect height="34" width="177" y="-17" x="-88.5" ry="0" rx="0" style="" class="basic label-container"></rect><g transform="translate(-81, -9.5)" style="" class="label"><rect></rect><foreignObject height="19" width="162"><div style="display: inline-block; white-space: nowrap;" xmlns="http://www.w3.org/1999/xhtml"><span class="nodeLabel">Metadata Extraction</span></div></foreignObject></g></g><g transform="translate(392.25, 288)" data-id="D" data-node="true" id="flowchart-D-5" class="node default process flowchart-label"><rect height="34" width="200" y="-17" x="-100" ry="0" rx="0" style="" class="basic label-container"></rect><g transform="translate(-92.5, -9.5)" style="" class="label"><rect></rect><foreignObject height="19" width="185"><div style="display: inline-block; white-space: nowrap;" xmlns="http://www.w3.org/1999/xhtml"><span class="nodeLabel">Document Governance</span></div></foreignObject></g></g><g transform="translate(60.5, 372)" data-id="D1" data-node="true" id="flowchart-D1-7" class="node default subitem flowchart-label"><rect height="34" width="121" y="-17" x="-60.5" ry="0" rx="0" style="" class="basic label-container"></rect><g transform="translate(-53, -9.5)" style="" class="label"><rect></rect><foreignObject height="19" width="106"><div style="display: inline-block; white-space: nowrap;" xmlns="http://www.w3.org/1999/xhtml"><span class="nodeLabel">Text Cleaning</span></div></foreignObject></g></g><g transform="translate(273, 372)" data-id="D2" data-node="true" id="flowchart-D2-9" class="node default subitem flowchart-label"><rect height="34" width="204" y="-17" x="-102" ry="0" rx="0" style="" class="basic label-container"></rect><g transform="translate(-94.5, -9.5)" style="" class="label"><rect></rect><foreignObject height="19" width="189"><div style="display: inline-block; white-space: nowrap;" xmlns="http://www.w3.org/1999/xhtml"><span class="nodeLabel">Header/Footer Removal</span></div></foreignObject></g></g><g transform="translate(511.5, 372)" data-id="D3" data-node="true" id="flowchart-D3-11" class="node default subitem flowchart-label"><rect height="34" width="173" y="-17" x="-86.5" ry="0" rx="0" style="" class="basic label-container"></rect><g transform="translate(-79, -9.5)" style="" class="label"><rect></rect><foreignObject height="19" width="158"><div style="display: inline-block; white-space: nowrap;" xmlns="http://www.w3.org/1999/xhtml"><span class="nodeLabel">OCR Noise Removal</span></div></foreignObject></g></g><g transform="translate(700.5, 372)" data-id="D4" data-node="true" id="flowchart-D4-13" class="node default subitem flowchart-label"><rect height="34" width="105" y="-17" x="-52.5" ry="0" rx="0" style="" class="basic label-container"></rect><g transform="translate(-45, -9.5)" style="" class="label"><rect></rect><foreignObject height="19" width="90"><div style="display: inline-block; white-space: nowrap;" xmlns="http://www.w3.org/1999/xhtml"><span class="nodeLabel">PII Masking</span></div></foreignObject></g></g><g transform="translate(392.25, 456)" data-id="E" data-node="true" id="flowchart-E-18" class="node default process flowchart-label"><rect height="34" width="159" y="-17" x="-79.5" ry="0" rx="0" style="" class="basic label-container"></rect><g transform="translate(-72, -9.5)" style="" class="label"><rect></rect><foreignObject height="19" width="144"><div style="display: inline-block; white-space: nowrap;" xmlns="http://www.w3.org/1999/xhtml"><span class="nodeLabel">Chunk Generation</span></div></foreignObject></g></g><g transform="translate(392.25, 540)" data-id="F" data-node="true" id="flowchart-F-20" class="node default process flowchart-label"><rect height="34" width="154" y="-17" x="-77" ry="0" rx="0" style="" class="basic label-container"></rect><g transform="translate(-69.5, -9.5)" style="" class="label"><rect></rect><foreignObject height="19" width="139"><div style="display: inline-block; white-space: nowrap;" xmlns="http://www.w3.org/1999/xhtml"><span class="nodeLabel">Quality Validation</span></div></foreignObject></g></g><g transform="translate(392.25, 624)" data-id="G" data-node="true" id="flowchart-G-22" class="node default process flowchart-label"><rect height="34" width="174" y="-17" x="-87" ry="0" rx="0" style="" class="basic label-container"></rect><g transform="translate(-79.5, -9.5)" style="" class="label"><rect></rect><foreignObject height="19" width="159"><div style="display: inline-block; white-space: nowrap;" xmlns="http://www.w3.org/1999/xhtml"><span class="nodeLabel">Metrics &amp; Audit Trail</span></div></foreignObject></g></g><g transform="translate(392.25, 717.5)" data-id="H" data-node="true" id="flowchart-H-24" class="node default output flowchart-label"><rect height="53" width="147" y="-26.5" x="-73.5" ry="0" rx="0" style="" class="basic label-container"></rect><g transform="translate(-66, -19)" style="" class="label"><rect></rect><foreignObject height="38" width="132"><div style="display: inline-block; white-space: nowrap;" xmlns="http://www.w3.org/1999/xhtml"><span class="nodeLabel">Knowledge Base<br/>JSON Output</span></div></foreignObject></g></g></g></g></g></svg>